<?xml version="1.0" standalone="yes"?>
<svg xmlns="http://www.w3.org/2000/svg" width="1000" height="429">
<path style="fill:#010101; stroke:none;" d="M0 0L0 58L1 58C3.01023 38.5004 32.7571 35.6621 48 33.9498C99.6149 28.1517 150.937 18.3103 203 17.0146C288.295 14.8919 373.471 13 459 13C507.216 13 555.746 16.0738 604 13.9606C691.508 10.1284 779.359 1.05777 867 1L844 0L793 0L615 0L0 0z"/>
<path style="fill:#01ff01; stroke:none;" d="M867 0L868 1L867 0z"/>
<path style="fill:#5fbd67; stroke:none;" d="M54 129C47.6575 145.441 51.5704 156.328 58 172C48.8466 173.182 36.3298 174.063 29.108 180.39C25.9292 183.176 25.5007 187.734 22.49 190.397C18.9034 193.569 13.0717 190.352 9.6142 193.738C7.55206 195.758 8.2599 199.526 7.23534 202.09C1.39747 216.698 4.93175 228.03 8.32022 243C9.17131 246.76 12.5048 253.653 12.3272 257.039C12.0925 261.513 7.06358 264.987 12.152 268.648C25.648 278.359 46.8978 282.707 63 285.414C105.458 292.55 150.06 290.794 193 291.001C213.531 291.1 232.358 298.765 252 293L253 300C259.013 298.971 263.259 304.842 268.941 303.522C273.624 302.435 283.378 291.968 276 289L276 288C285.844 285.834 284.24 302.013 294 304C293.295 299.413 297.625 290.366 303.606 294.596C306.35 296.536 306.452 302.016 310.225 302.469C316.041 303.167 321.565 298.466 328 299.44C336.894 300.786 344.897 303.119 354 302.996C359.48 302.922 364.505 300.578 370 300.924C396.457 302.592 421.772 304.232 449 303.039C478.808 301.734 508.322 304.301 538 303.996C560.955 303.76 584.024 301.277 607 301.004C683.755 300.091 760.352 303.396 837 300.039C870.864 298.556 903.398 294.628 937 290C949.221 288.317 968.194 288.623 976.816 278.995C997.639 255.741 990.476 220.303 993.17 192C996.874 153.073 1002.82 112.011 998.155 73C996.296 57.4661 993.78 40.5353 983.482 28.0394C968.875 10.3142 939.927 2.26489 918 0.169769C882.732 -3.20013 846.195 2.41934 811 3.96063C741.624 6.99881 672.341 10.924 603 13.9606C486.547 19.0604 369.376 6.94092 253 14.9105C193.278 19.0004 134.337 21.3499 75 30.5756C54.3051 33.7932 28.4887 32.2616 10.0008 43.4792C-12.3839 57.0611 11.8584 85.1583 20.1381 100C22.3136 103.9 24.3117 115.657 27.5957 117.873C34.8501 122.768 45.2711 125.638 54 129z"/>
<path style="fill:#010101; stroke:none;" d="M920 0L920 1C943.364 1.48233 975.268 14.4035 987.547 35C997.117 51.0518 999 71.7053 999 90L1000 90L1000 0L920 0z"/>
<path style="fill:#7f7f7f; stroke:none;" d="M815 3L816 4L815 3M697 8L698 9L697 8z"/>
<path style="fill:#01ff01; stroke:none;" d="M232 15L233 16L232 15M991 42L992 43L991 42M995 55L996 56L995 55z"/>
<path style="fill:#010101; stroke:none;" d="M0 60L0 429L200 429L261 429C269.308 429 280.818 431.082 288.775 428.682C293.733 427.187 296.294 416.324 298.15 412C305.031 395.97 312.173 380.052 319 364C321.119 359.017 324.241 345.296 330.997 345.296C335.856 345.296 337.465 351.394 339 355C343.411 365.361 348.001 375.642 352.421 386C356.841 396.357 361.408 406.651 365.85 417C367.32 420.425 368.731 426.672 372.39 428.397C380.304 432.125 396.253 429 405 429L405 428C368.517 419.33 368.537 357.051 403 345.749C414.193 342.079 447.198 342.918 443 361C433.132 356.629 425.65 350.062 414 351.171C385.588 353.877 375.976 395.514 395.326 414.671C406.8 426.032 425.087 422.182 439 419L439 392L417 392L417 385L446 385C446 400.523 452.674 426.195 432 428L432 429L466 429L466 345L518 345L518 352L474 352L474 382L516 382L516 390L474 390L474 422L518 422L518 429L534 429L534 345C543.647 345.313 548.12 354.996 553.373 362C566.321 379.264 579.41 396.474 592 414L593 414L593 345L600 345L600 429L645 429L645 428C607.105 421.241 610.007 355.571 644 345.44C654.412 342.337 688.509 343.653 682 361C675.453 356.963 669.732 353.009 662 351.616C614.541 343.062 613.7 431.022 664 421.532C670.956 420.22 676.443 416.103 682 412C685.141 421.74 676.603 425.956 668 428L668 429L700 429L700 371L708 371L708 429L1000 429L1000 94L999 94C999 134.836 994.874 175.341 992.089 216C990.683 236.534 992.438 258.736 978.621 276C968.24 288.971 948.364 288.042 933 290.424C891.012 296.936 849.502 301 807 301C717.317 301 627.587 302.222 538 303.985C505.005 304.634 472.132 302.51 439 303.961C428.571 304.417 417.405 304.776 407 303.942C403.506 303.662 400.473 301.308 397 301.356C393.144 301.411 389.99 303.957 386 303.667C380.25 303.25 374.791 300.847 369 300.599C362.295 300.311 355.883 303.154 349 302.985C334.093 302.62 323.212 295.744 309 304C307.792 300.886 306.598 295.637 303.606 293.748C297.261 289.741 292.931 299.294 294 304C285.391 301.562 285.678 286.744 277 288C286.333 301.196 251.786 309.577 252 293C248.157 293.693 244.826 296.166 241 296.636C233.909 297.507 225.128 294.011 218 293.155C203.057 291.361 188.007 290.697 173 290.039C136.873 288.457 100.799 292.307 65 285.611C50.6964 282.936 36.4192 279.311 23 273.573C19.5338 272.09 11.7335 269.731 10.4182 265.787C9.33769 262.547 12.9151 257.981 14 255C8.65452 250.595 9.59892 246.151 7.79089 240C4.0413 227.243 -0.325111 205.829 9.6034 194.434C13.0671 190.458 18.674 193.67 22.4869 190.972C25.8097 188.621 26.6265 183.198 30.0193 180.34C37.4539 174.078 48.8241 173.729 58 172C53.0077 154.664 48.8509 147.047 54 129L27.5995 117.192L21.6798 102L0 60z"/>
<path style="fill:#7f7f7f; stroke:none;" d="M996 60L997 61L996 60z"/>
<path style="fill:#fafdfa; stroke:none;" d="M142 238L164.272 236.972L168.151 226L176 194L235 194L242.627 226L246.703 236.972L270 238C260.041 194.56 245.014 151.883 232.86 109C229.831 98.3137 226.627 87.6785 223.579 77C222.634 73.6902 222.035 67.2983 218.581 65.6034C214.191 63.449 194.211 63.1881 191.279 67.3179C188.2 71.6529 187.459 78.9387 186 84L175.579 120C168.252 145.697 160.67 171.319 153.291 197C149.46 210.333 143.852 224.259 142 238M274 65C275.198 79.6705 281.638 94.8374 285.576 109C293.18 136.35 300.971 163.649 308.576 191L317.424 223C318.497 226.859 319.16 233.379 321.934 236.397C326.166 240.999 343.988 238 350 238L361.849 194L387.151 102L397 65L374 65L347.627 169L337 213L335 213C334.067 201.581 329.648 190.097 326.873 179C320.78 154.626 314.22 130.375 308.127 106C305.788 96.6445 303.213 87.3566 300.873 78C300.027 74.6139 299.661 69.2182 297.146 66.6034C293.221 62.5227 279.358 65 274 65M507 238L505.972 220.603L490 219L444 219L444 158L496 158L494.972 141.603L482 140L444 140L444 83L504 83L506 65L444 65L421.603 66.0278L420 75L420 99L420 200L420 227L421.603 236.972L444 238L507 238M538 65L538 238L561 238L561 164L583.895 165.028L594.247 182L613.753 221L622.637 236.972L648 238L632.258 207L607 160C640.211 150.913 653.305 100.058 624.985 77.6805C602.201 59.6768 565.11 65 538 65M655 65L668.691 97L703.034 171L704 193L704 238L727 238L727 193L727.954 171L761.258 99L776 65L753.39 66.0278L742.719 88L717 150L715 150L689.421 89L678.502 66.0278L655 65M804 107L814 107L816 98C820.078 98 825.989 96.9219 829.775 98.6034C836.71 101.683 834.335 106.993 844 107L834.692 79L829.914 66.6034L820.225 65.6034L814.333 77L804 107M849 107L858 107L858 65L850.028 66.6034L849 78L849 107z"/>
<path style="fill:#01ff01; stroke:none;" d="M4 72L5 73L4 72z"/>
<path style="fill:#7f7f7f; stroke:none;" d="M998 75L999 76L998 75z"/>
<path style="fill:#5fbd67; stroke:none;" d="M824 76L819 91L829 91L824 76z"/>
<path style="fill:#01ff01; stroke:none;" d="M8 80L9 81L8 80z"/>
<path style="fill:#5fbd67; stroke:none;" d="M561 83L561 128C561 132.32 559.221 141.852 562.028 145.397C565.51 149.794 580.145 146.654 585 146.169C593.684 145.301 602.548 144.007 608.61 136.907C623.678 119.258 614.704 88.8169 592 84.4606C581.764 82.4966 571.368 83 561 83z"/>
<path style="fill:#01ff01; stroke:none;" d="M11 85L12 86L11 85z"/>
<path style="fill:#5fbd67; stroke:none;" d="M205 85C198.893 114.589 183.315 145.835 182 176L229 176L214.373 117L205 85z"/>
<path style="fill:#01ff01; stroke:none;" d="M16 93L17 94L16 93M19 98L20 99L19 98z"/>
<path style="fill:#7f7f7f; stroke:none;" d="M24 108L25 109L24 108z"/>
<path style="fill:#01ff01; stroke:none;" d="M43 125L44 126L43 125M51 135L52 136L51 135M997 146L998 147L997 146z"/>
<path style="fill:#7f7f7f; stroke:none;" d="M52 158L53 159L52 158M996 162L997 163L996 162M54 163L55 164L54 163M49 173L50 174L49 173z"/>
<path style="fill:#01ff01; stroke:none;" d="M33 177L34 178L33 177z"/>
<path style="fill:#7f7f7f; stroke:none;" d="M25 184L26 185L25 184z"/>
<path style="fill:#01ff01; stroke:none;" d="M8 198L9 199L8 198z"/>
<path style="fill:#7f7f7f; stroke:none;" d="M7 202L8 203L7 202z"/>
<path style="fill:#01ff01; stroke:none;" d="M992 212L993 213L992 212M5 219L6 220L5 219z"/>
<path style="fill:#7f7f7f; stroke:none;" d="M11 253L12 254L11 253z"/>
<path style="fill:#01ff01; stroke:none;" d="M12 258L13 259L12 258z"/>
<path style="fill:#7f7f7f; stroke:none;" d="M22 273L23 274L22 273z"/>
<path style="fill:#01ff01; stroke:none;" d="M27 275L28 276L27 275z"/>
<path style="fill:#7f7f7f; stroke:none;" d="M979 275L980 276L979 275z"/>
<path style="fill:#01ff01; stroke:none;" d="M69 286L70 287L69 286z"/>
<path style="fill:#7f7f7f; stroke:none;" d="M279 286L280 287L279 286z"/>
<path style="fill:#01ff01; stroke:none;" d="M281 287L282 288L281 287z"/>
<path style="fill:#7f7f7f; stroke:none;" d="M276 288L277 289L276 288M278 289L279 290L278 289z"/>
<path style="fill:#01ff01; stroke:none;" d="M177 290L178 291L177 290M298 294L299 295L298 294M900 295L901 296L900 295M285 296L286 297L285 296z"/>
<path style="fill:#7f7f7f; stroke:none;" d="M251 297L252 298L251 297M328 299L329 300L328 299M791 301L792 302L791 301z"/>
<path style="fill:#01ff01; stroke:none;" d="M290 303L291 304L290 303z"/>
<path style="fill:#7f7f7f; stroke:none;" d="M309 303L310 304L309 303z"/>
<path style="fill:#5fbd67; stroke:none;" d="M446 385L417 385L417 392L439 392L439 419C424.352 421.154 408.61 426.178 396.174 414.671C379.003 398.785 383.249 359.955 407 352.623C422.155 347.944 429.816 357.41 443 361C447.724 347.606 427.782 344.016 418 344C398.52 343.969 383.352 352.968 379.015 373C374.943 391.805 378.628 417.174 398 426.099C405.128 429.383 412.348 429 420 429C426.921 429 439.113 429.877 444.397 424.298C446.94 421.612 446 416.377 446 413L446 385M682 412C671.326 418.075 662.012 424.458 649 421.471C614.819 413.624 620.315 353.804 655 351.185C665.676 350.379 672.885 357.167 682 361C686.279 353.201 680.184 349.401 673 346.71C662.148 342.645 647.367 342.187 637 347.905C608.621 363.558 610.639 421.151 645 428.482C655.894 430.806 689.683 429.803 682 412M291 429L300 429C301.65 423.23 304.627 412.484 309.394 408.603C312.205 406.315 316.626 407 320 407C328.084 406.999 344.773 403.816 351.775 408.028C362.271 414.34 355.403 428.988 371 429C364.66 406.824 352.422 385.184 343.281 364C341.039 358.804 337.909 345.117 330.975 345.117C323.841 345.117 320.85 358.676 318.579 364C309.54 385.183 297.076 406.785 291 429M466 345L466 429L518 429L518 422L474 422L474 390L516 390L516 382L474 382L474 352L518 352L518 345L466 345M534 345L534 429L542 429L542 360L543 360C552.347 378.769 569.029 396.203 581.627 413C586.665 419.718 590.773 428.7 600 429L600 345L593 345L593 414C579.027 397.616 567.049 379.229 554.127 362C548.502 354.501 544.291 345.122 534 345z"/>
<path style="fill:#01ff01; stroke:none;" d="M335 346L336 347L335 346M672 346L673 347L672 346z"/>
<path style="fill:#5fbd67; stroke:none;" d="M699 346L699 356L709 356L709 346L699 346z"/>
<path style="fill:#01ff01; stroke:none;" d="M325 348L326 349L325 348z"/>
<path style="fill:#7f7f7f; stroke:none;" d="M634 349L635 350L634 349z"/>
<path style="fill:#01ff01; stroke:none;" d="M678 349L679 350L678 349M391 351L392 352L391 351z"/>
<path style="fill:#7f7f7f; stroke:none;" d="M406 352L407 353L406 352M338 353L339 354L338 353M629 353L630 354L629 353z"/>
<path style="fill:#01ff01; stroke:none;" d="M628 354L629 355L628 354z"/>
<path style="fill:#7f7f7f; stroke:none;" d="M433 355L434 356L433 355z"/>
<path style="fill:#010101; stroke:none;" d="M330 356L312 399L349 399C346.92 387.293 338.415 364.398 330 356z"/>
<path style="fill:#01ff01; stroke:none;" d="M386 356L387 357L386 356z"/>
<path style="fill:#010101; stroke:none;" d="M542 360L542 429L594 429L567.424 393L542 360z"/>
<path style="fill:#7f7f7f; stroke:none;" d="M629 368L630 369L629 368z"/>
<path style="fill:#01ff01; stroke:none;" d="M345 369L346 370L345 369z"/>
<path style="fill:#5fbd67; stroke:none;" d="M700 371L700 429L708 429L708 371L700 371z"/>
<path style="fill:#7f7f7f; stroke:none;" d="M378 375L379 376L378 375M348 376L349 377L348 376z"/>
<path style="fill:#01ff01; stroke:none;" d="M564 376L565 377L564 376M618 376L619 377L618 376z"/>
<path style="fill:#7f7f7f; stroke:none;" d="M312 378L313 379L312 378z"/>
<path style="fill:#01ff01; stroke:none;" d="M567 380L568 381L567 380M567 393L568 394L567 393M570 397L571 398L570 397M627 398L628 399L627 398M358 399L359 400L358 399M302 401L303 402L302 401z"/>
<path style="fill:#010101; stroke:none;" d="M300 429L362 429C360.696 423.511 357.48 411.267 352.582 408.028C348.498 405.327 339.724 407 335 407C328.488 407 314.971 404.431 309.394 408.028C304.513 411.175 300.972 423.532 300 429z"/>
<path style="fill:#7f7f7f; stroke:none;" d="M391 409L392 410L391 409M382 410L383 411L382 410M590 411L591 412L590 411M679 413L680 414L679 413M683 415L684 416L683 415z"/>
<path style="fill:#01ff01; stroke:none;" d="M292 424L293 425L292 424M641 427L642 428L641 427z"/>
</svg>
